<svg id="visual" viewBox="0 0 900 600" width="900" height="600" xmlns="http://www.w3.org/2000/svg" xmlns:xlink="http://www.w3.org/1999/xlink" version="1.1"><rect x="0" y="0" width="900" height="600" fill="#0f1011"></rect><path d="M0 433L21.5 447.8C43 462.7 86 492.3 128.8 484.8C171.7 477.3 214.3 432.7 257.2 429C300 425.3 343 462.7 385.8 470.3C428.7 478 471.3 456 514.2 457C557 458 600 482 642.8 480.5C685.7 479 728.3 452 771.2 447.3C814 442.7 857 460.3 878.5 469.2L900 478L900 601L878.5 601C857 601 814 601 771.2 601C728.3 601 685.7 601 642.8 601C600 601 557 601 514.2 601C471.3 601 428.7 601 385.8 601C343 601 300 601 257.2 601C214.3 601 171.7 601 128.8 601C86 601 43 601 21.5 601L0 601Z" fill="#12be12" stroke-linecap="round" stroke-linejoin="miter"></path></svg>