<svg id="visual" viewBox="0 0 960 540" width="960" height="540" xmlns="http://www.w3.org/2000/svg" xmlns:xlink="http://www.w3.org/1999/xlink" version="1.1"><rect x="0" y="0" width="960" height="540" fill="#000000"></rect><path d="M0 334L14.5 335.5C29 337 58 340 87.2 339.7C116.3 339.3 145.7 335.7 174.8 335.5C204 335.3 233 338.7 262 344.3C291 350 320 358 349 357.3C378 356.7 407 347.3 436.2 345C465.3 342.7 494.7 347.3 523.8 345.5C553 343.7 582 335.3 611 335.3C640 335.3 669 343.7 698 345.2C727 346.7 756 341.3 785.2 336.2C814.3 331 843.7 326 872.8 326C902 326 931 331 945.5 333.5L960 336L960 541L945.5 541C931 541 902 541 872.8 541C843.7 541 814.3 541 785.2 541C756 541 727 541 698 541C669 541 640 541 611 541C582 541 553 541 523.8 541C494.7 541 465.3 541 436.2 541C407 541 378 541 349 541C320 541 291 541 262 541C233 541 204 541 174.8 541C145.7 541 116.3 541 87.2 541C58 541 29 541 14.5 541L0 541Z" fill="#000000"></path><path d="M0 433L14.5 429.7C29 426.3 58 419.7 87.2 417.2C116.3 414.7 145.7 416.3 174.8 419.8C204 423.3 233 428.7 262 429.7C291 430.7 320 427.3 349 423C378 418.7 407 413.3 436.2 410.7C465.3 408 494.7 408 523.8 408.2C553 408.3 582 408.7 611 411.2C640 413.7 669 418.3 698 414.8C727 411.3 756 399.7 785.2 392C814.3 384.3 843.7 380.7 872.8 385.5C902 390.3 931 403.7 945.5 410.3L960 417L960 541L945.5 541C931 541 902 541 872.8 541C843.7 541 814.3 541 785.2 541C756 541 727 541 698 541C669 541 640 541 611 541C582 541 553 541 523.8 541C494.7 541 465.3 541 436.2 541C407 541 378 541 349 541C320 541 291 541 262 541C233 541 204 541 174.8 541C145.7 541 116.3 541 87.2 541C58 541 29 541 14.5 541L0 541Z" fill="#005200"></path><path d="M0 453L14.5 451.8C29 450.7 58 448.3 87.2 455.2C116.3 462 145.7 478 174.8 479.3C204 480.7 233 467.3 262 458.8C291 450.3 320 446.7 349 447.3C378 448 407 453 436.2 454.7C465.3 456.3 494.7 454.7 523.8 461.3C553 468 582 483 611 480.5C640 478 669 458 698 451.5C727 445 756 452 785.2 456.8C814.3 461.7 843.7 464.3 872.8 463.8C902 463.3 931 459.7 945.5 457.8L960 456L960 541L945.5 541C931 541 902 541 872.8 541C843.7 541 814.3 541 785.2 541C756 541 727 541 698 541C669 541 640 541 611 541C582 541 553 541 523.8 541C494.7 541 465.3 541 436.2 541C407 541 378 541 349 541C320 541 291 541 262 541C233 541 204 541 174.8 541C145.7 541 116.3 541 87.2 541C58 541 29 541 14.5 541L0 541Z" fill="#2a9b0b"></path></svg>