<svg id="visual" viewBox="0 0 900 600" width="900" height="600" xmlns="http://www.w3.org/2000/svg" xmlns:xlink="http://www.w3.org/1999/xlink" version="1.1"><rect x="0" y="0" width="900" height="600" fill="#0f1011"></rect><path d="M0 499L21.5 508C43 517 86 535 128.8 530.5C171.7 526 214.3 499 257.2 496.8C300 494.7 343 517.3 385.8 522C428.7 526.7 471.3 513.3 514.2 513.8C557 514.3 600 528.7 642.8 527.8C685.7 527 728.3 511 771.2 508.3C814 505.7 857 516.3 878.5 521.7L900 527L900 601L878.5 601C857 601 814 601 771.2 601C728.3 601 685.7 601 642.8 601C600 601 557 601 514.2 601C471.3 601 428.7 601 385.8 601C343 601 300 601 257.2 601C214.3 601 171.7 601 128.8 601C86 601 43 601 21.5 601L0 601Z" fill="#12be12" stroke-linecap="round" stroke-linejoin="miter"></path></svg>