<svg id="visual" viewBox="0 0 960 540" width="960" height="540" xmlns="http://www.w3.org/2000/svg" xmlns:xlink="http://www.w3.org/1999/xlink" version="1.1"><rect x="0" y="0" width="960" height="540" fill="#FFFFFF"></rect><path d="M47 0L47.5 10C48 20 49 40 52.2 60C55.3 80 60.7 100 93.2 120C125.7 140 185.3 160 205.3 180C225.3 200 205.7 220 189.2 240C172.7 260 159.3 280 163.3 300C167.3 320 188.7 340 180.8 360C173 380 136 400 130.8 420C125.7 440 152.3 460 171.3 480C190.3 500 201.7 520 207.3 530L213 540L0 540L0 530C0 520 0 500 0 480C0 460 0 440 0 420C0 400 0 380 0 360C0 340 0 320 0 300C0 280 0 260 0 240C0 220 0 200 0 180C0 160 0 140 0 120C0 100 0 80 0 60C0 40 0 20 0 10L0 0Z" fill="#979797" stroke-linecap="round" stroke-linejoin="miter"></path></svg>